<?xml version="1.0" encoding="iso-8859-1"?>
<!-- Generator: Adobe Illustrator 19.0.0, SVG Export Plug-In . SVG Version: 6.00 Build 0)  -->
<svg version="1.1" id="Layer_1" xmlns="http://www.w3.org/2000/svg" xmlns:xlink="http://www.w3.org/1999/xlink" x="0px" y="0px"
	 viewBox="0 0 512 512" style="enable-background:new 0 0 512 512;" xml:space="preserve">
<path style="fill:#999999;" d="M484.683,234.94l-217.656-61.974v-28.781c27.384-5.18,48.156-29.286,48.156-58.153
	c0-32.634-26.55-59.183-59.183-59.183s-59.183,26.549-59.183,59.183v11.028h22.055V86.031c0-20.472,16.656-37.128,37.128-37.128
	c20.473,0,37.128,16.656,37.128,37.128s-16.656,37.128-37.128,37.128h-11.028v49.806L27.317,234.94
	c-18.514,5.271-29.585,22.268-26.924,41.334c2.662,19.065,17.965,32.379,37.214,32.379h436.787c19.25,0,34.553-13.315,37.214-32.379
	C514.268,257.208,503.197,240.211,484.683,234.94z M489.764,273.223c-0.902,6.466-5.415,13.373-15.37,13.373H37.607
	c-9.956,0-14.468-6.909-15.37-13.373c-0.902-6.466,1.545-14.346,11.12-17.072L256,192.757l222.643,63.395
	C488.219,258.878,490.666,266.758,489.764,273.223z"/>
<g>
	<path style="fill:#666666;" d="M93.902,357.912c-6.091,0-11.028-4.937-11.028-11.028v-59.546c0-6.091,4.937-11.028,11.028-11.028
		s11.028,4.937,11.028,11.028v59.546C104.929,352.975,99.992,357.912,93.902,357.912z"/>
	<path style="fill:#666666;" d="M418.098,357.912c-6.091,0-11.028-4.937-11.028-11.028v-59.546c0-6.091,4.937-11.028,11.028-11.028
		c6.091,0,11.028,4.937,11.028,11.028v59.546C429.126,352.975,424.189,357.912,418.098,357.912z"/>
</g>
<path style="fill:#F95428;" d="M490.528,381.703c3.595,8.679-3.573,20.026-3.573,30.006c0,9.98,7.168,21.316,3.573,30.006
	c-3.727,8.999-16.961,11.899-23.743,18.681c-6.782,6.782-9.693,20.015-18.692,23.743c-8.679,3.606-20.015-3.573-29.995-3.573
	c-9.991,0-21.328,7.179-30.006,3.573c-8.999-3.727-11.91-16.961-18.692-23.743c-6.672-6.672-19.596-9.594-23.555-18.262
	c-0.066-0.132-0.132-0.276-0.188-0.419c-3.595-8.679,3.573-20.026,3.573-30.006c0-9.98-7.168-21.328-3.573-30.006
	c3.727-8.999,16.961-11.91,23.743-18.692c6.782-6.771,9.693-20.004,18.692-23.743c8.679-3.595,20.015,3.584,30.006,3.584
	c9.98,0,21.316-7.179,29.995-3.584c2.007,0.827,3.716,2.139,5.227,3.738c5.26,5.58,8.194,14.733,13.465,20.004
	C473.568,369.794,486.801,372.705,490.528,381.703z"/>
<g>
	<path style="fill:#FFFFFF;" d="M446.403,383.396c-4.307-4.306-11.288-4.306-15.596,0l-41.023,41.025
		c-4.306,4.306-4.306,11.289,0,15.595c2.154,2.154,4.976,3.23,7.798,3.23c2.822,0,5.644-1.077,7.798-3.23l41.024-41.025
		C450.711,394.685,450.711,387.702,446.403,383.396z"/>
	<circle style="fill:#FFFFFF;" cx="438.614" cy="432.218" r="11.028"/>
	<circle style="fill:#FFFFFF;" cx="397.735" cy="391.338" r="11.028"/>
</g>
<g>
</g>
<g>
</g>
<g>
</g>
<g>
</g>
<g>
</g>
<g>
</g>
<g>
</g>
<g>
</g>
<g>
</g>
<g>
</g>
<g>
</g>
<g>
</g>
<g>
</g>
<g>
</g>
<g>
</g>
</svg>
